/* XPM */
static const char * app16x16_xpm[] = {
"16 16 6 1",
" 	c None",
".	c #FFFFC0",
"+	c #FF0000",
"@	c #0000FF",
"#	c #585858",
"$	c #000000",
"    +++  @@@@@@@",
"    +++   @@@@@@",
"     +++     @@@",
"      +++###  $$",
"      #+++  $$$@",
"$     # +++$$   ",
"$$    #$$++ #   ",
" $$$$$$$ +++#   ",
"  $$   ###+++   ",
"  $$$      +++##",
"$$  $$     #+++ ",
"     $$    # +++",
"      $$   $$$++",
"       $$$$$ ##+",
"      $$$$      ",
"     $$  $$     "};
