/* XPM */
static const char * app32x32_xpm[] = {
"32 32 6 1",
" 	c None",
".	c #FFFFC0",
"+	c #000000",
"@	c #585858",
"#	c #FFC0FF",
"$	c #FF0000",
"                               +",
"                             ++ ",
"                          @@++  ",
"                       @@@+++   ",
"                    @@@##++ @   ",
"                 @@@   ++    @@ ",
"$$$$$$$$$$$$$$$$$$$$$$$$$$$$$$$$",
"@@@@@@@@@@@@@@@@@@@@@@@@@@@@@@@@",
"$$$$$$$$$$$$$$$$$$$$$$$$$$$$$$$$",
"                 ++   @    @@   ",
"                ++     @  @     ",
"          +++++++       @@      ",
"     ++++++   +++++++++ @@      ",
"++++++       +++++    ++++++++++",
"             +  ++              ",
"            +    ++             ",
"           +      ++            ",
"          +        +            ",
"          +        ++           ",
"        ++          +           ",
"       ++           +           ",
"      ++            +           ",
"      +             +           ",
"     ++            +            ",
"    ++             +            ",
"    +             ++            ",
"    +            ++             ",
"   ++            +              ",
"   +            ++              ",
"  ++           ++               ",
" ++            +                ",
"++             +                "};
